<?xml version="1.0" encoding="UTF-8" standalone="no"?>
<!-- Created with Inkscape (http://www.inkscape.org/) -->

<svg
   xmlns:osb="http://www.openswatchbook.org/uri/2009/osb"
   xmlns:dc="http://purl.org/dc/elements/1.1/"
   xmlns:cc="http://creativecommons.org/ns#"
   xmlns:rdf="http://www.w3.org/1999/02/22-rdf-syntax-ns#"
   xmlns:svg="http://www.w3.org/2000/svg"
   xmlns="http://www.w3.org/2000/svg"
   xmlns:sodipodi="http://sodipodi.sourceforge.net/DTD/sodipodi-0.dtd"
   xmlns:inkscape="http://www.inkscape.org/namespaces/inkscape"
   width="500"
   height="500"
   id="svg2"
   version="1.1"
   inkscape:version="0.47 r22583"
   sodipodi:docname="input.svg">
  <defs
     id="defs4">
    <inkscape:perspective
       sodipodi:type="inkscape:persp3d"
       inkscape:vp_x="0 : 250 : 1"
       inkscape:vp_y="0 : 1000 : 0"
       inkscape:vp_z="500 : 250 : 1"
       inkscape:persp3d-origin="250 : 166.66667 : 1"
       id="perspective3850" />
    <linearGradient
       id="linearGradient3805"
       osb:paint="solid">
      <stop
         style="stop-color:#666666;stop-opacity:1;"
         offset="0"
         id="stop3807" />
    </linearGradient>
  </defs>
  <sodipodi:namedview
     id="base"
     pagecolor="#ffffff"
     bordercolor="#666666"
     borderopacity="1.0"
     inkscape:pageopacity="0"
     inkscape:pageshadow="2"
     inkscape:zoom="1.4"
     inkscape:cx="-79.193002"
     inkscape:cy="183.3498"
     inkscape:document-units="px"
     inkscape:current-layer="g6632"
     showgrid="false"
     inkscape:showpageshadow="false"
     inkscape:window-width="2512"
     inkscape:window-height="1574"
     inkscape:window-x="48"
     inkscape:window-y="0"
     inkscape:window-maximized="1" />
  <metadata
     id="metadata7">
    <rdf:RDF>
      <cc:Work
         rdf:about="">
        <dc:format>image/svg+xml</dc:format>
        <dc:type
           rdf:resource="http://purl.org/dc/dcmitype/StillImage" />
        <dc:title />
      </cc:Work>
    </rdf:RDF>
  </metadata>
  <g
     inkscape:label="Layer 1"
     inkscape:groupmode="layer"
     id="layer1"
     transform="translate(0,-552.36218)"
     style="display:inline">
    <g
       id="g6642">
      <g
         transform="translate(3.7891165,0.19974782)"
         id="g6632">
        <g
           id="g5375"
           transform="matrix(1,0,0,1.1151374,-3.8531735,-150.99345)" />
        <g
           id="g3854"
           transform="translate(-35.60489,0)">
          <rect
             style="fill:#ffffff;fill-opacity:1;stroke:#ffffff;stroke-width:8.1043787;stroke-miterlimit:4;stroke-opacity:1;stroke-dasharray:none;display:inline"
             id="rect6114"
             width="339.41898"
             height="438.98016"
             x="115.58269"
             y="582.87213"
             ry="57.949326"
             transform="translate(-3.7891165,-0.19974782)" />
          <rect
             ry="51.561829"
             y="707.9765"
             x="121.61362"
             height="305.815"
             width="319.61765"
             id="rect5367-4"
             style="fill:#ffffff;fill-opacity:1;stroke:#565656;stroke-width:10.53434086;stroke-linecap:round;stroke-linejoin:round;stroke-miterlimit:4;stroke-opacity:1;stroke-dasharray:none" />
          <rect
             ry="42.107983"
             y="830.31335"
             x="132.14693"
             height="175.17403"
             width="298.42642"
             id="rect5367-4-8"
             style="fill:#f18f34;fill-opacity:1;stroke:#ffffff;stroke-width:8.2265892;stroke-linecap:round;stroke-linejoin:round;stroke-miterlimit:4;stroke-opacity:1;stroke-dasharray:none;display:inline" />
          <rect
             style="fill:#565656;fill-opacity:1;stroke:#565656;stroke-width:10.02549458;stroke-linecap:round;stroke-linejoin:round;stroke-miterlimit:4;stroke-opacity:1;stroke-dasharray:none;display:inline"
             id="rect5367"
             width="319.61765"
             height="274.23975"
             x="125.4668"
             y="665.34308"
             ry="46.238094"
             transform="matrix(1,0,0,1.1151374,-3.8531735,-150.99345)" />
          <path
             sodipodi:nodetypes="ccccc"
             inkscape:connector-curvature="0"
             id="path5466"
             d="m 126.7747,847.86016 -0.26325,105.01446 c -0.65611,-27.54418 -0.30205,-54.27135 75.21122,-52.07149 l -1.97465,-51.56701 z"
             style="fill:#565656;stroke:#565656;stroke-width:1.49121141px;stroke-linecap:butt;stroke-linejoin:miter;stroke-opacity:1" />
          <path
             sodipodi:nodetypes="cccc"
             inkscape:connector-curvature="0"
             id="path5470"
             d="m 132.07103,945.04001 c 0.97305,-24.51282 9.33412,-45.89036 69.84045,-44.90139 l 185.73859,0 c 35.24469,-0.53077 59.42854,-19.66734 64.12666,-52.50309"
             style="fill:none;stroke:#ffffff;stroke-width:8.22687244;stroke-linecap:round;stroke-linejoin:round;stroke-miterlimit:4;stroke-opacity:1;stroke-dasharray:none" />
        </g>
        <g
           transform="translate(10.729663,460.16243)"
           style="font-size:150px;font-style:normal;font-variant:normal;font-weight:normal;font-stretch:normal;fill:#ffffff;fill-opacity:1;stroke:none;font-family:CM Typewriter;-inkscape-font-specification:CM Typewriter"
           id="flowRoot3862">
          <path
             d="m 131.6125,261.5125 c -2.25,0 -5.1,-0.6 -7.05,0.75 -2.85,1.8 -2.55,6.45 0.45,7.95 1.65,0.75 3.9,0.45 5.7,0.45 l 11.85,0 c 1.95,0 4.5,0.45 6.3,-0.6 2.7,-1.8 2.7,-6.45 -0.3,-8.1 -1.8,-0.9 -4.35,-0.45 -6.3,-0.45 l 3.6,-15.6 24,0 3.6,15.6 c -1.95,0 -4.5,-0.45 -6.3,0.45 -3,1.65 -3,6.3 -0.3,8.1 1.8,1.05 4.35,0.6 6.3,0.6 l 11.85,0 c 1.8,0 4.05,0.3 5.7,-0.45 3,-1.5 3.3,-6.15 0.45,-7.95 -1.95,-1.35 -4.8,-0.75 -7.05,-0.75 -0.3,-2.7 -1.2,-5.55 -1.8,-8.25 l -13.05,-56.4 c 0,-0.15 -3.75,-16.05 -3.75,-16.05 -1.8,-4.5 -6.15,-3.6 -7.65,-3.6 -4.5,0 -6.9,-0.29999 -8.4,6.9 l -12.75,54.75 c -3.9,18.14998 -4.65,19.2 -5.1,22.65 m 16.35,-24.75 2.4,-10.2 6.15,-29.25 1.2,-7.8 0.3,0 1.2,7.8 2.25,11.1 c 2.1,9.44999 4.05,19.05001 6.3,28.35 l -19.8,0"
             style="fill:#ffffff;font-family:CM Typewriter;-inkscape-font-specification:CM Typewriter"
             id="path4381" />
          <path
             d="m 213.72109,233.9125 c -4.19999,0.9 -4.49999,7.2 -0.6,8.7 1.2,0.45 2.7,0.3 3.9,0.3 l 39.6,0 c 1.35,0 3,0.15 4.2,-0.6 3.45,-1.95 2.55,-7.95 -1.5,-8.55 -1.05,-0.15 -2.25,0 -3.3,0 l -36.3,0 c -1.94999,0 -4.05,-0.3 -6,0.15"
             style="fill:#ffffff;font-family:CM Typewriter;-inkscape-font-specification:CM Typewriter"
             id="path4383" />
          <path
             d="m 348.32969,263.3125 0,-11.25 c 0,-1.65 0.3,-3.9 -0.6,-5.4 -1.05,-1.8 -2.7,-2.1 -4.65,-2.1 -2.25,0 -4.35,0.6 -5.1,3 -0.45,1.5 -0.15,3.3 -0.15,4.8 l 0,9.15 -40.8,0 c 1.35,-2.25 2.85,-4.35 4.35,-6.45 l 43.65,-64.8 c 1.2,-1.95 3.75,-4.2 2.25,-8.55 -1.05,-3.3 -5.55,-2.7 -6.75,-2.7 l -49.65,0 c -5.4,0 -5.7,1.95 -5.7,6.9 l 0,10.05 c 0,1.65 -0.15,3.45 1.05,4.8 1.05,1.35 2.4,1.5 4.05,1.5 5.09999,0 5.4,-2.25001 5.4,-7.35 l 0,-6.75 38.25,0 c -1.35,2.25 -2.85,4.35 -4.35,6.45 l -43.65,64.8 c -1.2,1.95 -3.75,4.2 -2.25,8.55 1.2,3.45 5.7,2.7 6.9,2.7 l 51.9,0 c 5.54999,0 5.85,-1.50001 5.85,-7.35"
             style="fill:#ffffff;font-family:CM Typewriter;-inkscape-font-specification:CM Typewriter"
             id="path4385" />
        </g>
      </g>
    </g>
  </g>
</svg>
